<svg width="619" height="560" viewBox="0 0 619 560" fill="none" xmlns="http://www.w3.org/2000/svg">
<path d="M413.89 399.634L331.638 463.382V270.978C331.637 254.69 335.421 238.626 342.691 224.051C349.961 209.477 360.519 196.791 373.53 186.995L454.557 126.028V316.549C454.563 332.582 450.903 348.405 443.854 362.805C436.806 377.206 426.556 389.804 413.89 399.634ZM204.58 399.743C191.902 389.92 181.64 377.325 174.58 362.924C167.52 348.523 163.849 332.697 163.848 316.659V126.138L244.874 187.192C257.872 196.988 268.417 209.669 275.68 224.235C282.942 238.801 286.722 254.855 286.723 271.131V463.491L204.514 399.743H204.58ZM574.672 499.822L495.836 559.956V149.219C495.835 132.065 499.785 115.142 507.381 99.7609C514.976 84.3801 526.013 70.9557 539.634 60.5287L618.492 0V411C618.49 428.192 614.519 445.152 606.888 460.559C599.257 475.965 588.172 489.402 574.497 499.822H574.672ZM44.1483 499.822C30.4509 489.422 19.3402 475.999 11.6824 460.6C4.02464 445.201 0.0266195 428.241 0 411.043L0 0L79.099 60.5725C92.7203 70.9994 103.757 84.4239 111.352 99.8047C118.948 115.186 122.898 132.109 122.897 149.263V560L44.0607 499.865L44.1483 499.822Z" fill="#28EEBE"/>
</svg>
